<svg xmlns="http://www.w3.org/2000/svg" xmlns:xlink="http://www.w3.org/1999/xlink" version="1.1" x="0px" y="0px" viewBox="0 0 64 64" enable-background="new 0 0 64 64" xml:space="preserve" aria-hidden="true" width="64px" height="64px" style="fill:url(#CerosGradient_id734cdac3e);"><defs><linearGradient class="cerosgradient" data-cerosgradient="true" id="CerosGradient_id734cdac3e" gradientUnits="userSpaceOnUse" x1="50%" y1="100%" x2="50%" y2="0%"><stop offset="0%" stop-color="#237AFF"/><stop offset="100%" stop-color="#237AFF"/></linearGradient><linearGradient/></defs><g><g><path d="M18.211,47.896C19.57,47.12,20.5,45.674,20.5,44c0-2.481-2.019-4.5-4.5-4.5s-4.5,2.019-4.5,4.5    c0,1.674,0.93,3.12,2.289,3.896C11.292,48.803,9.5,51.193,9.5,54c0,0.276,0.224,0.5,0.5,0.5s0.5-0.224,0.5-0.5    c0-3.032,2.467-5.5,5.5-5.5s5.5,2.468,5.5,5.5c0,0.276,0.224,0.5,0.5,0.5s0.5-0.224,0.5-0.5    C22.5,51.193,20.708,48.803,18.211,47.896z M12.5,44c0-1.93,1.57-3.5,3.5-3.5s3.5,1.57,3.5,3.5s-1.57,3.5-3.5,3.5    S12.5,45.93,12.5,44z" style="fill:url(#CerosGradient_id734cdac3e);"/><path d="M34.211,15.896C35.57,15.12,36.5,13.674,36.5,12c0-2.481-2.019-4.5-4.5-4.5s-4.5,2.019-4.5,4.5    c0,1.674,0.93,3.12,2.289,3.896C27.292,16.803,25.5,19.193,25.5,22c0,0.276,0.224,0.5,0.5,0.5s0.5-0.224,0.5-0.5    c0-3.033,2.467-5.5,5.5-5.5c3.032,0,5.5,2.467,5.5,5.5c0,0.276,0.224,0.5,0.5,0.5s0.5-0.224,0.5-0.5    C38.5,19.193,36.708,16.803,34.211,15.896z M28.5,12c0-1.93,1.57-3.5,3.5-3.5s3.5,1.57,3.5,3.5s-1.57,3.5-3.5,3.5    S28.5,13.93,28.5,12z" style="fill:url(#CerosGradient_id734cdac3e);"/><path d="M50.211,47.896C51.57,47.12,52.5,45.674,52.5,44c0-2.481-2.019-4.5-4.5-4.5s-4.5,2.019-4.5,4.5    c0,1.674,0.93,3.12,2.289,3.896C43.292,48.803,41.5,51.193,41.5,54c0,0.276,0.224,0.5,0.5,0.5s0.5-0.224,0.5-0.5    c0-3.032,2.468-5.5,5.5-5.5s5.5,2.468,5.5,5.5c0,0.276,0.224,0.5,0.5,0.5s0.5-0.224,0.5-0.5    C54.5,51.193,52.708,48.803,50.211,47.896z M44.5,44c0-1.93,1.57-3.5,3.5-3.5s3.5,1.57,3.5,3.5s-1.57,3.5-3.5,3.5    S44.5,45.93,44.5,44z" style="fill:url(#CerosGradient_id734cdac3e);"/><path d="M32.5,33.793V26c0-0.276-0.224-0.5-0.5-0.5s-0.5,0.224-0.5,0.5v7.793l-5.854,5.854c-0.195,0.195-0.195,0.512,0,0.707    C25.744,40.451,25.872,40.5,26,40.5s0.256-0.049,0.354-0.146L32,34.707l5.646,5.646C37.744,40.451,37.872,40.5,38,40.5    s0.256-0.049,0.354-0.146c0.195-0.195,0.195-0.512,0-0.707L32.5,33.793z" style="fill:url(#CerosGradient_id734cdac3e);"/></g></g></svg>