<svg xmlns="http://www.w3.org/2000/svg" xmlns:xlink="http://www.w3.org/1999/xlink" version="1.1" x="0px" y="0px" viewBox="0 0 100 100" enable-background="new 0 0 100 100" xml:space="preserve" aria-hidden="true" width="100px" height="100px" style="fill:url(#CerosGradient_id498e3cfde);"><defs><linearGradient class="cerosgradient" data-cerosgradient="true" id="CerosGradient_id498e3cfde" gradientUnits="userSpaceOnUse" x1="50%" y1="100%" x2="50%" y2="0%"><stop offset="0%" stop-color="#237AFF"/><stop offset="100%" stop-color="#237AFF"/></linearGradient><linearGradient/></defs><path d="M81.19,42.661c-0.413-1.272-1.512-2.2-2.836-2.391l-17.414-2.531l-7.788-15.781C52.559,20.76,51.337,20,50,20  c-1.337,0-2.559,0.76-3.151,1.958l-7.788,15.781L21.646,40.27c-1.324,0.191-2.423,1.119-2.837,2.391  c-0.414,1.272-0.068,2.668,0.889,3.603L32.3,58.547l-2.975,17.345c-0.226,1.318,0.315,2.651,1.397,3.437  C31.334,79.773,32.06,80,32.788,80c0.56,0,1.121-0.133,1.635-0.404L50,71.407l15.576,8.189C66.09,79.867,66.652,80,67.211,80  c0.729,0,1.454-0.227,2.065-0.671c1.082-0.786,1.624-2.119,1.398-3.437L67.7,58.547l12.602-12.283  C81.259,45.33,81.604,43.934,81.19,42.661z" style="fill:url(#CerosGradient_id498e3cfde);"/></svg>