<svg xmlns="http://www.w3.org/2000/svg" data-name="Layer 1" viewBox="0 0 64 64" x="0px" y="0px" aria-hidden="true" width="64px" height="64px" style="fill:url(#CerosGradient_id45b7c143e);"><defs><linearGradient class="cerosgradient" data-cerosgradient="true" id="CerosGradient_id45b7c143e" gradientUnits="userSpaceOnUse" x1="50%" y1="100%" x2="50%" y2="0%"><stop offset="0%" stop-color="#6C36F7"/><stop offset="100%" stop-color="#6C36F7"/></linearGradient><linearGradient/></defs><path d="M7.5,14A6.5,6.5,0,1,0,1,7.5,6.51,6.51,0,0,0,7.5,14Zm0-11A4.5,4.5,0,1,1,3,7.5,4.51,4.51,0,0,1,7.5,3Z" style="fill:url(#CerosGradient_id45b7c143e);"/><path d="M37,38a1,1,0,0,0,1-1V27a1,1,0,0,0-1-1H27a1,1,0,0,0-1,1V37a1,1,0,0,0,1,1ZM28,28h8v8H28Z" style="fill:url(#CerosGradient_id45b7c143e);"/><path d="M13.85,62.53a1,1,0,0,0,0-1l-5.5-11a1,1,0,0,0-1.78,0l-5.5,11A1,1,0,0,0,2,63H13A1,1,0,0,0,13.85,62.53ZM3.62,61,7.5,53.24,11.38,61Z" style="fill:url(#CerosGradient_id45b7c143e);"/><path d="M52.47,12.5a1,1,0,0,0,.87.5h5.77a1,1,0,0,0,.87-.5l2.89-5a1,1,0,0,0,0-1L60,1.5a1,1,0,0,0-.87-.5H53.34a1,1,0,0,0-.87.5l-2.88,5a1,1,0,0,0,0,1ZM53.92,3h4.62l2.31,4-2.31,4H53.92L51.61,7Z" style="fill:url(#CerosGradient_id45b7c143e);"/><path d="M62.14,47l-7-1a1,1,0,0,0-.8.23A1,1,0,0,0,54,47V61H52v2h6V61H56V55h6a1,1,0,0,0,1-1V48A1,1,0,0,0,62.14,47ZM61,53H56V48.15l5,.72Z" style="fill:url(#CerosGradient_id45b7c143e);"/><rect x="17" y="6" width="2" height="2" style="fill:url(#CerosGradient_id45b7c143e);"/><rect x="21" y="6" width="25" height="2" style="fill:url(#CerosGradient_id45b7c143e);"/><path d="M41,33h7a9,9,0,0,0,9-9V16H55v8a7,7,0,0,1-7,7H41Z" style="fill:url(#CerosGradient_id45b7c143e);"/><path d="M7,40v7H9V40a7,7,0,0,1,7-7h7V31H16A9,9,0,0,0,7,40Z" style="fill:url(#CerosGradient_id45b7c143e);"/><path d="M43.57,61.32l5-3.5a1,1,0,0,0,0-1.64l-5-3.5-1.14,1.64L44.83,56H17v2H44.83l-2.4,1.68Z" style="fill:url(#CerosGradient_id45b7c143e);"/></svg>