<svg xmlns:dc="http://purl.org/dc/elements/1.1/" xmlns:cc="http://creativecommons.org/ns#" xmlns:rdf="http://www.w3.org/1999/02/22-rdf-syntax-ns#" xmlns:svg="http://www.w3.org/2000/svg" xmlns="http://www.w3.org/2000/svg" xmlns:sodipodi="http://sodipodi.sourceforge.net/DTD/sodipodi-0.dtd" xmlns:inkscape="http://www.inkscape.org/namespaces/inkscape" version="1.1" x="0px" y="0px" viewBox="0 0 100 100" aria-hidden="true" width="100px" height="100px" style="fill:url(#CerosGradient_id385113700);"><defs><linearGradient class="cerosgradient" data-cerosgradient="true" id="CerosGradient_id385113700" gradientUnits="userSpaceOnUse" x1="50%" y1="100%" x2="50%" y2="0%"><stop offset="0%" stop-color="#D1D1D1"/><stop offset="100%" stop-color="#D1D1D1"/></linearGradient><linearGradient/></defs><g transform="translate(0,-952.36218)"><path style="font-size:medium;font-style:normal;font-variant:normal;font-weight:normal;font-stretch:normal;text-indent:0;text-align:start;text-decoration:none;line-height:normal;letter-spacing:normal;word-spacing:normal;text-transform:none;direction:ltr;block-progression:tb;writing-mode:lr-tb;text-anchor:start;baseline-shift:baseline;opacity:1;color:#000000;fill:#000000;fill-opacity:1;stroke:none;stroke-width:2;marker:none;visibility:visible;display:inline;overflow:visible;enable-background:accumulate;font-family:Sans;-inkscape-font-specification:Sans;fill:url(#CerosGradient_id385113700);" d="m 41.3125,965.61217 -19.5625,18.75002 -6.75,0 c -4.414702,0 -8,3.5853 -8,8 l 0,39.00001 c 0,4.4147 3.585298,8 8,8 l 70,0 c 4.414702,0 8,-3.5853 8,-8 l 0,-39.00001 c 0,-4.4147 -3.585298,-8 -8,-8 l -2,0 0,-18.00002 c -5.2e-5,-0.52358 -0.476416,-0.99995 -1,-1 l -40,0 c -0.278028,0 -0.539432,0.10808 -0.6875,0.25 z m 1.6875,1.75 38,0 0,33.12503 -31,17.7187 -31,-17.7187 0,-10.12501 23,0 c 0.523584,-1e-4 0.999948,-0.4764 1,-1 z m -2,1.34375 0,19.65627 -20.53125,0 z m 18.9375,7.65625 c -0.515803,0 -0.9375,0.4217 -0.9375,0.9375 l 0,0.125 c 0,0.5158 0.421697,0.93752 0.9375,0.93752 l 10.125,0 c 0.515803,0 0.9375,-0.42172 0.9375,-0.93752 l 0,-0.125 c 0,-0.5158 -0.421697,-0.9375 -0.9375,-0.9375 z M 15,986.36219 l 4.65625,0 -2.34375,2.25 c -0.202595,0.1917 -0.319056,0.4712 -0.3125,0.75 l 0,9.9687 -8,-4.5625 0,-2.4062 c 0,-3.3413 2.658704,-6 6,-6 z m 68,0 2,0 c 3.341296,0 6,2.6587 6,6 l 0,2.4062 -8,4.5625 z m -30.0625,2 c -0.515803,0 -0.9375,0.4217 -0.9375,0.9375 l 0,0.125 c 0,0.5158 0.421697,0.9375 0.9375,0.9375 l 17.125,0 c 0.515803,0 0.9375,-0.4217 0.9375,-0.9375 l 0,-0.125 c 0,-0.5158 -0.421697,-0.9375 -0.9375,-0.9375 z M 9,997.04969 49.5,1020.2059 c 0.302307,0.1745 0.697693,0.1745 1,0 l 40.5,-23.15621 0,34.31251 c 0,3.3413 -2.658704,6 -6,6 l -70,0 c -3.341296,0 -6,-2.6587 -6,-6 z m 20.9375,3.31251 c -0.515803,0 -0.9375,0.4217 -0.9375,0.9375 l 0,0.125 c 0,0.5158 0.421697,0.9375 0.9375,0.9375 l 40.125,0 c 0.515803,0 0.9375,-0.4217 0.9375,-0.9375 l 0,-0.125 c 0,-0.5158 -0.421697,-0.9375 -0.9375,-0.9375 z"/></g></svg>