<?xml version="1.0" encoding="utf-8"?><!-- Generator: Adobe Illustrator 25.1.0, SVG Export Plug-In . SVG Version: 6.00 Build 0)  --><svg xmlns="http://www.w3.org/2000/svg" xmlns:xlink="http://www.w3.org/1999/xlink" version="1.1" id="Layer_165d4577aa466d" x="0px" y="0px" viewBox="0 0 1155.6 199.6" style="enable-background:new 0 0 1155.6 199.6;" xml:space="preserve" aria-hidden="true" width="1155px" height="199px"><defs><linearGradient class="cerosgradient" data-cerosgradient="true" id="CerosGradient_idc9cd93ddf" gradientUnits="userSpaceOnUse" x1="50%" y1="100%" x2="50%" y2="0%"><stop offset="0%" stop-color="#d1d1d1"/><stop offset="100%" stop-color="#d1d1d1"/></linearGradient><linearGradient/></defs>
<style type="text/css">
	.st0-65d4577aa466d{fill:#969797;}
	.st1-65d4577aa466d{fill:#CB2429;}
	.st2-65d4577aa466d{fill:#335D98;}
	.st3-65d4577aa466d{fill:#8FC6EE;}
	.st4-65d4577aa466d{fill:#E1972F;}
</style>
<path d="M284.7,92.2c23,0,37.2-12.3,37.2-32.2c0-20.2-12.9-30.8-37.8-30.8h-27.7v63H284.7L284.7,92.2z M256.5,190.8h-27.1V4.4h64.9  c32.2,0,54.9,23,54.9,55.7c0,15.7-4.8,27.7-14.6,38.6c-12.9,13.7-26.3,18.8-51.2,18.8h-26.9V190.8L256.5,190.8z"/>
<path d="M363.9,190.8V50.8h24.4v12.6c7.8-10.6,19-15.7,35.8-16.2V74c-23.8,2-34.1,14.3-34.1,40.3v76.4H363.9L363.9,190.8z"/>
<path d="M499.6,71c-27.4,0-49.5,22.4-49.5,49.8c0,27.4,22.4,50.1,49.5,49.8c27.1,0,49.3-22.4,49.3-50.1  C548.9,93.4,526.7,71,499.6,71 M499.6,194.4c-41.7,0-75.6-33-75.6-74.2c0-40.3,33.9-73,75.6-73c41.4,0,75.3,32.7,75.3,73  C574.9,161.4,541,194.4,499.6,194.4"/>
<path d="M595.2,190.8V74.3h-12.3V50.3h12.3v-5.6c0-12.6,4.5-22.7,13.7-30.5c9.2-7.6,16.8-9.8,33.9-9.8h3.1V27l-2.8,0.3  c-14.6,0.6-21.8,6.4-21.8,17.4v5.6h24.6V74h-24.6v116.7H595.2L595.2,190.8z"/>
<polygon points="756.7,190.8 730.7,190.8 730.7,74.3 711.6,74.3 711.6,50.8 730.7,50.8 730.7,4.4 756.7,4.4 756.7,50.8 779.6,50.8   779.6,74.3 756.7,74.3 756.7,190.8 "/>
<path d="M898.3,112.1c-1.1-23-21.5-42-45.1-42c-12.9,0-26,5.9-34.4,15.4c-6.7,7.3-9,12.9-10.9,26.6H898.3L898.3,112.1z M853,194.4  c-39.2,0-71.4-33-71.4-73.6c0-41.4,31.9-74.5,71.9-74.5c38.9,0,70.8,32.7,70.8,72.5c0,3.1-0.3,7.6-0.6,13.4H808.2  c5.3,23.5,23.5,38.6,45.9,38.6c16.5,0,30.5-8.4,39.5-23.8h26.6C909.2,176.2,883.2,194.4,853,194.4"/>
<path d="M942.5,190.8V50.8h24.4v12.6c7.8-10.6,19-15.7,35.8-16.2V74c-23.8,2-34.2,14.3-34.2,40.3v76.4H942.5L942.5,190.8z"/>
<path d="M1078.2,71c-27.4,0-49.5,22.4-49.5,49.8c0,27.4,22.4,50.1,49.5,49.8c27.1,0,49.3-22.4,49.3-50.1  C1127.4,93.4,1105.3,71,1078.2,71 M1078.2,194.4c-41.7,0-75.6-33-75.6-74.2c0-40.3,33.9-73,75.6-73c41.4,0,75.3,32.7,75.3,73  C1153.5,161.4,1119.6,194.4,1078.2,194.4"/>
<path d="M690.9,190.8h-26V50.8h26V190.8L690.9,190.8z M690.9,35.1h-26V4.4h26V35.1L690.9,35.1z"/>
<polygon class="st0-65d4577aa466d" points="2.8,4.3 47.2,48.6 59.7,36.1 45.7,22.1 172.2,22.1 172.2,148.6 157.7,134.1 145.2,146.7 190,191.4   190,4.3 2.8,4.3 "/>
<polygon class="st1-65d4577aa466d" points="27.1,112.1 14.5,99.6 79.6,34.5 92.2,47 27.1,112.1 "/>
<polygon class="st2-65d4577aa466d" points="26.8,157.5 14.2,144.9 118.9,40.3 131.4,52.9 26.8,157.5 "/>
<polygon class="st3-65d4577aa466d" points="89,140.4 76.5,127.8 118.7,85.6 131.2,98.2 89,140.4 "/>
<polygon class="st4-65d4577aa466d" points="95.7,178.9 83.1,166.3 150.5,99 163,111.5 95.7,178.9 "/>
</svg>