<svg xmlns="http://www.w3.org/2000/svg" xmlns:xlink="http://www.w3.org/1999/xlink" version="1.1" x="0px" y="0px" viewBox="0 0 95 95" style="enable-background:new 0 0 95 95;fill:url(#CerosGradient_id0f12a68cb);" xml:space="preserve" aria-hidden="true" width="95px" height="95px"><defs><linearGradient class="cerosgradient" data-cerosgradient="true" id="CerosGradient_id0f12a68cb" gradientUnits="userSpaceOnUse" x1="50%" y1="100%" x2="50%" y2="0%"><stop offset="0%" stop-color="#D1D1D1"/><stop offset="100%" stop-color="#D1D1D1"/></linearGradient><linearGradient/></defs><style type="text/css">
	.st0-65e8e001b3520{fill-rule:evenodd;clip-rule:evenodd;}
</style><path d="M94.26,80.19h-6.9V43.33c0-0.41-0.33-0.74-0.74-0.74H60.54c-0.41,0-0.74,0.33-0.74,0.74v9.03H34.46  c-0.41,0-0.74,0.33-0.74,0.74v9.06H8.39c-0.41,0-0.74,0.33-0.74,0.74v17.28h-6.9C0.33,80.19,0,80.52,0,80.93v9.44  c0,0.41,0.33,0.74,0.74,0.74h93.52c0.41,0,0.74-0.33,0.74-0.74v-9.44C95,80.52,94.67,80.19,94.26,80.19z M61.28,44.07h24.59v36.12  H61.28V53.1V44.07z M35.2,53.85H59.8v26.34H35.2V62.9V53.85z M9.13,63.65h24.59v16.54H9.13V63.65z M93.52,89.63H1.48v-7.96h6.9  h26.08h26.08h26.08h6.9V89.63z M74.32,67.73h-1.48V54.17h1.48V67.73z M65.57,23.47l-2.18,10.11c-0.06,0.29,0.05,0.58,0.29,0.75  c0.13,0.1,0.29,0.15,0.44,0.15c0.12,0,0.25-0.03,0.36-0.1l9.24-5.2l8.94,5.2c0.25,0.15,0.57,0.13,0.81-0.04  c0.24-0.17,0.35-0.46,0.3-0.75l-2.09-10.4l7.71-6.9c0.22-0.19,0.3-0.5,0.21-0.78s-0.33-0.48-0.62-0.51l-10.53-1.22l-4.18-9.46  c-0.12-0.27-0.38-0.44-0.67-0.44c0,0,0,0-0.01,0c-0.29,0-0.55,0.17-0.67,0.43l-4.42,9.64L58.2,15.01c-0.29,0.03-0.54,0.23-0.63,0.5  c-0.09,0.28-0.01,0.58,0.2,0.78L65.57,23.47z M69.06,15.39c0.26-0.03,0.49-0.19,0.6-0.43l3.91-8.53l3.68,8.34  c0.11,0.24,0.33,0.41,0.59,0.44l9.32,1.08l-6.79,6.08c-0.2,0.18-0.28,0.44-0.23,0.7l1.85,9.2l-7.88-4.58  c-0.23-0.13-0.51-0.13-0.74,0l-8.17,4.6l1.92-8.91c0.06-0.26-0.03-0.52-0.22-0.7l-6.9-6.35L69.06,15.39z" style="fill:url(#CerosGradient_id0f12a68cb);"/></svg>