<svg xmlns:x="http://ns.adobe.com/Extensibility/1.0/" xmlns:i="http://ns.adobe.com/AdobeIllustrator/10.0/" xmlns:graph="http://ns.adobe.com/Graphs/1.0/" xmlns="http://www.w3.org/2000/svg" xmlns:xlink="http://www.w3.org/1999/xlink" version="1.1" x="0px" y="0px" viewBox="0 0 64 64" enable-background="new 0 0 64 64" xml:space="preserve" aria-hidden="true" width="64px" height="64px" style="fill:url(#CerosGradient_id1bd5d9e56);"><defs><linearGradient class="cerosgradient" data-cerosgradient="true" id="CerosGradient_id1bd5d9e56" gradientUnits="userSpaceOnUse" x1="50%" y1="100%" x2="50%" y2="0%"><stop offset="0%" stop-color="#000000"/><stop offset="100%" stop-color="#000000"/></linearGradient><linearGradient/></defs><metadata><sfw xmlns="http://ns.adobe.com/SaveForWeb/1.0/"><slices/><sliceSourceBounds y="-8160" x="-8165" width="16389" height="16384" bottomLeftOrigin="true"/></sfw></metadata><g><g><path d="M32,6C17.664,6,6,17.664,6,32c0,14.337,11.664,26,26,26c14.337,0,26-11.663,26-26C58,17.664,46.337,6,32,6z M32,54    c-12.131,0-22-9.869-22-22s9.869-22,22-22s22,9.869,22,22S44.131,54,32,54z" style="fill:url(#CerosGradient_id1bd5d9e56);"/><path d="M32,14c-1.104,0-2,0.896-2,2v15.171l-9.414,9.415c-0.781,0.781-0.781,2.047,0,2.828C20.976,43.805,21.488,44,22,44    s1.024-0.195,1.414-0.586l10-10C33.789,33.039,34,32.53,34,32V16C34,14.896,33.104,14,32,14z" style="fill:url(#CerosGradient_id1bd5d9e56);"/></g></g></svg>