<svg xmlns="http://www.w3.org/2000/svg" xmlns:xlink="http://www.w3.org/1999/xlink" version="1.1" x="0px" y="0px" viewBox="0 0 65 65" enable-background="new 0 0 65 65" xml:space="preserve" aria-hidden="true" width="65px" height="65px" style="fill:url(#CerosGradient_idf6c054674);"><defs><linearGradient class="cerosgradient" data-cerosgradient="true" id="CerosGradient_idf6c054674" gradientUnits="userSpaceOnUse" x1="50%" y1="100%" x2="50%" y2="0%"><stop offset="0%" stop-color="#35CA95"/><stop offset="100%" stop-color="#35CA95"/></linearGradient><linearGradient/></defs><g><path d="M64.4,36.8c-4.3,1.7-7.7,5.4-9,6.9C55.2,44,54.9,44,54.7,44c-0.3,0-0.5-0.1-0.7-0.3l-8.3-12c-0.1-0.1-0.1-0.3-0.1-0.5   c0.1-0.3,0.3-0.7,0.7-0.9c0.3-0.2,0.8-0.4,1.4-0.7c0.8-0.4,1.8-0.8,3-1.4l-0.7-1.3c-1.1,0.6-2.1,1-2.9,1.4   c-0.7,0.3-1.2,0.6-1.6,0.8c-0.7,0.5-1.3,1.1-1.4,1.9c0,0.2,0,0.4,0,0.6H20.8c0-0.2,0-0.4,0-0.6c-0.2-0.7-0.7-1.4-1.4-1.9   c-0.4-0.2-0.9-0.5-1.6-0.8c-0.9-0.4-2-0.9-3.4-1.6l-0.7,1.3c1.4,0.8,2.6,1.3,3.5,1.7c0.6,0.3,1.2,0.5,1.4,0.7   c0.4,0.2,0.7,0.6,0.7,0.9c0,0.2,0,0.3-0.1,0.5l-8.3,12c-0.1,0.2-0.4,0.3-0.7,0.3c-0.2,0-0.5,0-0.8-0.3c-1.3-1.5-4.7-5.2-9-6.9   L0,38.2c4.1,1.7,7.5,5.4,8.4,6.5c0.5,0.6,1.1,0.9,1.9,0.9c0,0,0.1,0,0.1,0c0.7,0,1.3-0.3,1.7-0.8c0.5,0.5,1.3,1.2,1.6,1.9   c0.1,0.3,0.2,0.4,0.3,0.6c0,0.1,0.1,0.2,0.1,0.3c-0.3,0.2-0.6,0.4-0.8,0.7c-0.5,0.7-0.7,1.6-0.6,2.4c0.1,0.9,0.6,1.6,1.3,2.1   l0.1,0.1c0.6,0.4,1.2,0.6,1.9,0.6c0.2,0,0.4,0,0.6-0.1c0,0.2,0,0.3,0,0.5c0.1,0.9,0.6,1.7,1.3,2.2c0.6,0.4,1.3,0.7,2,0.7   c0.3,0,0.6,0,0.8-0.1c0,0.1,0,0.2,0,0.3c0.1,0.9,0.6,1.7,1.3,2.2c0.6,0.4,1.3,0.7,2,0.7c0.3,0,0.6-0.1,0.9-0.2c0,0.1,0,0.1,0,0.2   c0.1,0.8,0.5,1.5,1.2,2c0.5,0.4,1.1,0.6,1.8,0.6c0.9,0,1.7-0.4,2.3-1.1c0.6,0.3,1.2,0.5,1.8,0.5c0.2,0,0.4,0,0.6-0.1   c0.9-0.2,1.7-0.7,2.2-1.4c0.4-0.6,0.6-1.3,0.6-1.9l0.8,0.6c0.6,0.4,1.3,0.6,1.9,0.6c1.1,0,2.2-0.5,2.8-1.5c0.4-0.6,0.6-1.3,0.6-1.9   l0.2,0.1c0.6,0.4,1.3,0.6,1.9,0.6c0.2,0,0.4,0,0.6-0.1c0.9-0.2,1.7-0.7,2.2-1.4c0.4-0.6,0.6-1.3,0.6-2l0.4,0.3   c0.6,0.4,1.3,0.6,1.9,0.6c1.1,0,2.2-0.5,2.8-1.5c0.5-0.8,0.7-1.7,0.5-2.6c-0.2-0.9-0.7-1.7-1.4-2.2l-11.2-7.6h-2.2   c-3.6,0-4.1-2.7-4.1-3L34,36.7h-7.6l-0.1,0.6c-0.3,1.8-0.9,3-1.8,3.5c-0.5,0.3-1,0.4-1.4,0.4v-5l5.8-3.2h0.9h15.1l7.9,11.6   c0.4,0.6,1.1,0.9,1.8,1c0,0,0.1,0,0.1,0c0.7,0,1.4-0.3,1.9-0.9c0.9-1.1,4.3-4.8,8.4-6.5L64.4,36.8z M15,51.6l-0.1-0.1   c-0.4-0.3-0.6-0.7-0.7-1.1c-0.1-0.5,0-0.9,0.3-1.3c0.3-0.4,0.8-0.7,1.4-0.7c0.4,0,0.7,0.1,1,0.3l0.1,0.1c0.7,0.5,0.9,1.4,0.6,2.1   l-0.4,0.5c0,0,0,0.1,0,0.1C16.6,52,15.7,52.1,15,51.6z M18.8,54.9c-0.4-0.3-0.6-0.7-0.7-1.2c-0.1-0.4,0-0.9,0.3-1.3   c0.1-0.1,0.2-0.2,0.2-0.3c0.1-0.1,0.9-1.3,0.9-1.3c0.3-0.5,0.9-0.7,1.5-0.7c0.4,0,0.8,0.1,1.1,0.4c0.8,0.6,1,1.7,0.4,2.5l-1.1,1.5   C20.8,55.3,19.6,55.4,18.8,54.9z M23,57.9c-0.4-0.3-0.6-0.7-0.7-1.2c-0.1-0.5,0-1,0.3-1.3l1.1-1.5c0,0,0,0,0,0l1-1.4   c0.3-0.5,0.9-0.7,1.5-0.7c0.4,0,0.8,0.1,1.1,0.4c0.4,0.3,0.6,0.7,0.7,1.2c0.1,0.5,0,1-0.3,1.3l-2.1,2.9   C24.9,58.3,23.7,58.5,23,57.9z M29.4,59.8l-0.3,0.4c-0.5,0.6-1.4,0.8-2.1,0.3c-0.3-0.2-0.5-0.6-0.6-1c-0.1-0.4,0-0.8,0.3-1.1   l0.3-0.4c0.3-0.4,0.7-0.6,1.2-0.6c0.3,0,0.6,0.1,0.9,0.3C29.8,58.2,29.9,59.2,29.4,59.8z M21.5,35.3v7.1l0.5,0.2   c0.1,0,1.6,0.5,3.1-0.4c1.2-0.7,2-2,2.4-4h5.1c0.5,1.5,2,3.7,5.5,3.7h1.7l10.8,7.3c0.4,0.3,0.7,0.7,0.8,1.2c0.1,0.5,0,1-0.3,1.4   c-0.6,0.9-1.8,1.1-2.7,0.5l-10.5-7.2l-0.9,1.2l7.7,5.3c0.9,0.6,1.1,1.8,0.5,2.7c-0.3,0.4-0.7,0.7-1.2,0.8c-0.5,0.1-1,0-1.5-0.3   l-2.5-1.7l-3.8-2.6L35.6,52l4,2.7c0.7,0.6,0.9,1.7,0.3,2.5c-0.6,0.9-1.8,1.1-2.7,0.5l-5-3.5l-0.9,1.2l1.8,1.3l0,0.1   c0.9,0.6,1.1,1.8,0.5,2.7c-0.3,0.4-0.7,0.7-1.2,0.8c-0.5,0.1-1,0-1.4-0.3c0.4-1.2,0.1-2.6-1-3.4c-0.4-0.3-1-0.5-1.5-0.5l0.3-0.4   c1.1-1.5,0.8-3.6-0.7-4.6c-0.6-0.4-1.3-0.7-2-0.7c-0.7,0-1.4,0.2-2,0.7c-0.2-0.7-0.6-1.3-1.2-1.7c-1.1-0.8-2.8-0.8-3.9,0   c-0.2-0.6-0.6-1.2-1.1-1.6l-0.1-0.1c-0.7-0.5-1.5-0.7-2.3-0.6c-0.1-0.1-0.1-0.2-0.2-0.4c-0.1-0.2-0.2-0.4-0.3-0.7   c-0.5-1-1.5-1.9-2.1-2.4L20.1,33h5.6L21.5,35.3z" style="fill:url(#CerosGradient_idf6c054674);"/><polygon points="39,10.9 37.9,9.9 29.9,17.9 27.1,15 26,16.1 29.9,20  " style="fill:url(#CerosGradient_idf6c054674);"/><path d="M32.5,26.6c6.6,0,12-5.4,12-12s-5.4-12-12-12s-12,5.4-12,12S25.9,26.6,32.5,26.6z M32.5,4.2C38.3,4.2,43,8.9,43,14.7   s-4.7,10.5-10.5,10.5S22,20.4,22,14.7S26.7,4.2,32.5,4.2z" style="fill:url(#CerosGradient_idf6c054674);"/></g></svg>